<svg width="49" height="9" viewBox="0 0 49 9" fill="none" xmlns="http://www.w3.org/2000/svg">
<path d="M3.852 8.28C2.652 8.28 1.708 7.908 1.02 7.164C0.339997 6.412 -2.66731e-06 5.404 -2.66731e-06 4.14C-2.66731e-06 2.876 0.339997 1.872 1.02 1.128C1.708 0.376004 2.652 3.57628e-06 3.852 3.57628e-06C5.028 3.57628e-06 5.932 0.288003 6.564 0.864003C7.196 1.44 7.512 2.232 7.512 3.24V3.348H5.592V3.288C5.592 2.712 5.46 2.312 5.196 2.088C4.932 1.856 4.48 1.74 3.84 1.74C3.136 1.74 2.64 1.908 2.352 2.244C2.064 2.58 1.92 3.212 1.92 4.14C1.92 5.068 2.064 5.7 2.352 6.036C2.64 6.372 3.136 6.54 3.84 6.54C4.48 6.54 4.932 6.428 5.196 6.204C5.46 5.972 5.592 5.568 5.592 4.992V4.932H7.512V5.04C7.512 6.048 7.196 6.84 6.564 7.416C5.932 7.992 5.028 8.28 3.852 8.28Z" fill="#8B5CF6"/>
<path d="M11.0932 8.28C10.1252 8.28 9.36515 8 8.81315 7.44C8.26915 6.872 7.99715 6.108 7.99715 5.148C7.99715 4.18 8.26915 3.416 8.81315 2.856C9.36515 2.288 10.1252 2.004 11.0932 2.004C12.0532 2.004 12.8012 2.288 13.3372 2.856C13.8812 3.416 14.1532 4.18 14.1532 5.148C14.1532 6.108 13.8812 6.872 13.3372 7.44C12.8012 8 12.0532 8.28 11.0932 8.28ZM11.0932 6.696C11.5812 6.696 11.9212 6.584 12.1132 6.36C12.3052 6.136 12.4012 5.732 12.4012 5.148C12.4012 4.564 12.3052 4.16 12.1132 3.936C11.9212 3.704 11.5812 3.588 11.0932 3.588C10.5972 3.588 10.2532 3.704 10.0612 3.936C9.86915 4.16 9.77315 4.564 9.77315 5.148C9.77315 5.732 9.86915 6.136 10.0612 6.36C10.2532 6.584 10.5972 6.696 11.0932 6.696Z" fill="#3B82F6"/>
<path d="M16.5346 8.16H14.7466V0.120003H16.5346V8.16Z" fill="#22D3EE"/>
<path d="M20.2225 8.28C19.2545 8.28 18.4945 8 17.9425 7.44C17.3985 6.872 17.1265 6.108 17.1265 5.148C17.1265 4.18 17.3985 3.416 17.9425 2.856C18.4945 2.288 19.2545 2.004 20.2225 2.004C21.1825 2.004 21.9305 2.288 22.4665 2.856C23.0105 3.416 23.2825 4.18 23.2825 5.148C23.2825 6.108 23.0105 6.872 22.4665 7.44C21.9305 8 21.1825 8.28 20.2225 8.28ZM20.2225 6.696C20.7105 6.696 21.0505 6.584 21.2425 6.36C21.4345 6.136 21.5305 5.732 21.5305 5.148C21.5305 4.564 21.4345 4.16 21.2425 3.936C21.0505 3.704 20.7105 3.588 20.2225 3.588C19.7265 3.588 19.3825 3.704 19.1905 3.936C18.9985 4.16 18.9025 4.564 18.9025 5.148C18.9025 5.732 18.9985 6.136 19.1905 6.36C19.3825 6.584 19.7265 6.696 20.2225 6.696Z" fill="#EC4899"/>
<path d="M25.6522 8.16H23.8642V2.124H25.5322V3.096H25.6042C25.9642 2.368 26.5282 2.004 27.2962 2.004C27.8962 2.004 28.3322 2.2 28.6042 2.592C28.8842 2.976 29.0242 3.496 29.0242 4.152V4.704H27.2362V4.38C27.2362 4.06 27.1802 3.84 27.0682 3.72C26.9562 3.592 26.7562 3.528 26.4682 3.528C26.1802 3.528 25.9722 3.592 25.8442 3.72C25.7162 3.84 25.6522 4.06 25.6522 4.38V8.16Z" fill="#FACC15"/>
<path d="M35.5062 8.16H29.5542V0.120003H31.3542V6.54H35.5062V8.16ZM37.6499 8.28C37.0899 8.28 36.6339 8.136 36.2819 7.848C35.9299 7.56 35.7539 7.152 35.7539 6.624C35.7539 5.688 36.3939 5.12 37.6739 4.92L39.7379 4.608V4.416C39.7379 4.08 39.6499 3.856 39.4739 3.744C39.3059 3.632 39.0299 3.576 38.6459 3.576C38.2779 3.576 38.0139 3.636 37.8539 3.756C37.7019 3.876 37.6259 4.088 37.6259 4.392V4.524H35.9099V4.392C35.9099 3.672 36.1659 3.096 36.6779 2.664C37.1979 2.224 37.8819 2.004 38.7299 2.004C39.6099 2.004 40.2819 2.232 40.7459 2.688C41.2099 3.136 41.4419 3.768 41.4419 4.584V8.16H39.7739V7.344H39.7019C39.2459 7.968 38.5619 8.28 37.6499 8.28ZM37.4699 6.48C37.4699 6.768 37.7299 6.912 38.2499 6.912C39.2419 6.912 39.7379 6.536 39.7379 5.784L38.0099 6.048C37.6499 6.104 37.4699 6.248 37.4699 6.48ZM43.9372 8.16H42.2692V0.120003H44.0572V2.964H44.1292C44.2812 2.692 44.5172 2.464 44.8372 2.28C45.1572 2.096 45.5332 2.004 45.9652 2.004C46.7812 2.004 47.4052 2.284 47.8372 2.844C48.2772 3.404 48.4972 4.172 48.4972 5.148C48.4972 6.116 48.2772 6.88 47.8372 7.44C47.4052 8 46.7852 8.28 45.9772 8.28C44.9932 8.28 44.3332 7.944 43.9972 7.272H43.9372V8.16ZM44.0572 5.628C44.0572 6.02 44.1692 6.304 44.3932 6.48C44.6172 6.656 44.9492 6.744 45.3892 6.744C45.8852 6.744 46.2292 6.62 46.4212 6.372C46.6132 6.124 46.7092 5.716 46.7092 5.148C46.7092 4.572 46.6132 4.16 46.4212 3.912C46.2372 3.664 45.8932 3.54 45.3892 3.54C44.9492 3.54 44.6172 3.628 44.3932 3.804C44.1692 3.98 44.0572 4.264 44.0572 4.656V5.628Z" fill="#0F172A"/>
</svg>
